<?xml version="1.0" encoding="utf-8"?>
<!-- Generator: Adobe Illustrator 24.0.0, SVG Export Plug-In . SVG Version: 6.00 Build 0)  -->
<svg version="1.1" xmlns="http://www.w3.org/2000/svg" xmlns:xlink="http://www.w3.org/1999/xlink" x="0px" y="0px"
	 viewBox="0 0 841.89 566.93" style="enable-background:new 0 0 841.89 566.93;" xml:space="preserve">
<style type="text/css">
	.st0{fill:#FFFFFF;}
	.st1{fill:#6F7070;}
	.st2{fill:#9E8F70;}
</style>
<g id="BG">
	<rect y="0" class="st0" width="841.89" height="566.93"/>
</g>
<g id="graphics">
	<g>
		<g>
			<path class="st1" d="M346.75,394.52v27.55h-7.62v-27.55h-9.67v-6.59h26.96v6.59H346.75z"/>
			<path class="st1" d="M389.78,417.36c-3.45,3.37-7.7,5.06-12.75,5.06c-5.05,0-9.3-1.68-12.75-5.06
				c-3.45-3.37-5.18-7.56-5.18-12.58c0-5.01,1.73-9.21,5.18-12.58c3.45-3.37,7.7-5.05,12.75-5.05c5.05,0,9.3,1.68,12.75,5.05
				c3.45,3.37,5.18,7.56,5.18,12.58C394.96,409.79,393.23,413.99,389.78,417.36z M387.19,404.8c0-3.05-0.98-5.64-2.93-7.79
				c-1.95-2.15-4.36-3.22-7.2-3.22c-2.85,0-5.25,1.07-7.21,3.22c-1.95,2.15-2.93,4.75-2.93,7.79c0,3.04,0.98,5.63,2.93,7.77
				c1.95,2.13,4.36,3.2,7.21,3.2c2.85,0,5.25-1.07,7.2-3.2C386.22,410.44,387.19,407.85,387.19,404.8z"/>
			<path class="st1" d="M411.52,407.56l6.06-19.64h7.96l6.01,19.64l6.79-19.64h8.25l-11.92,34.14H429l-7.47-23.74l-7.42,23.74h-5.67
				l-11.92-34.14h8.25L411.52,407.56z"/>
			<path class="st1" d="M475.26,387.93v6.79h-17v7.03h15.29v6.5h-15.29v7.08h17.54v6.74h-25.16v-34.14H475.26z"/>
			<path class="st1" d="M510.28,399.26c0,5.47-2.17,9-6.5,10.6l8.65,12.21h-9.38l-7.57-10.89h-5.28v10.89h-7.62v-34.14h12.94
				c5.31,0,9.09,0.9,11.36,2.69C509.15,392.41,510.28,395.29,510.28,399.26z M501.1,403.31c0.94-0.85,1.42-2.19,1.42-4.03
				c0-1.84-0.49-3.1-1.47-3.79c-0.98-0.68-2.69-1.03-5.13-1.03h-5.71v10.11h5.57C498.38,404.58,500.15,404.16,501.1,403.31z"/>
		</g>
	</g>
	<path class="st2" d="M460.15,314.58v-97.9l-17.33,6.45v-42.18l-43.74-24.13v73.11l9.07-3.38v-53.66l25.6,14.36v39.25l-8.26,3.08
		v-36.94l-9.07-5.19v45.5l-34.67,12.9v39.55l-17.33-6.45v91.18h61.07v-49.1l-9.07-3.38v42.81h-42.93V292l25.6,9.53v39.59h-8.26
		v-32.99l-9.07-3.38v46.04h26.4V304.9l60.26,22.42v33.13h-25.6v-23.31l8.26,3.07v10.57h9.07v-16.86l-26.4-9.82v9.67v36.36h43.74
		v-49.1L460.15,314.58z M451.08,311.2l-25.6-9.52v-43.08l8.26-3.07v39.8l9.07,3.38v-56.22l-26.4,9.82v46l-25.6-9.52v-36.63
		l8.26-3.08v33.35l9.07,3.37V245.7l42.93-15.97V311.2z"/>
</g>
</svg>
